<?xml version="1.0" standalone="no"?>

<svg version="1.0" xmlns="http://www.w3.org/2000/svg" width="4096.000000pt" height="4096.000000pt" viewBox="0 0 4096.000000 4096.000000" preserveAspectRatio="xMidYMid meet">

<g transform="translate(0.000000,4096.000000) scale(0.100000,-0.100000)" fill="#000000" stroke="none">
<path d="M6750 26586 c-8 -2 -62 -12 -120 -22 -67 -11 -124 -27 -156 -44 -28&#xA;-15 -64 -32 -80 -37 -86 -30 -381 -299 -399 -363 -4 -14 -22 -41 -40 -60 -20&#xA;-22 -35 -50 -40 -75 -3 -22 -18 -59 -31 -83 -14 -23 -32 -68 -40 -100 -8 -31&#xA;-19 -59 -24 -62 -14 -9 -29 -125 -30 -245 -2 -153 -9 -467 -14 -670 -3 -93 -8&#xA;-829 -11 -1635 -4 -806 -10 -1484 -15 -1507 -4 -24 -5 -43 -3 -43 3 0 37 33&#xA;77 73 48 48 101 88 160 121 85 47 92 49 185 54 l96 4 -3 1697 c-1 1055 1 1726&#xA;7 1776 23 191 119 374 225 427 22 11 48 26 56 33 32 27 154 58 218 56 216 -8&#xA;374 -128 458 -348 37 -98 69 -202 103 -333 40 -154 88 -335 105 -390 64 -213&#xA;102 -352 130 -480 15 -63 42 -169 61 -235 18 -66 42 -156 53 -200 52 -210 85&#xA;-345 97 -395 7 -30 38 -153 69 -274 31 -120 56 -226 56 -236 0 -9 9 -27 19&#xA;-39 22 -25 62 -21 97 11 33 30 80 38 214 37 193 -1 277 -11 343 -44 32 -15 60&#xA;-25 63 -23 6 7 -22 166 -36 203 -7 17 -18 59 -25 95 -8 36 -28 117 -45 180&#xA;-17 63 -39 151 -49 195 -33 138 -51 199 -72 239 -13 25 -19 50 -15 67 3 17&#xA;-11 83 -38 176 -25 81 -58 200 -76 263 -17 63 -35 126 -40 140 -5 14 -23 86&#xA;-41 160 -53 227 -148 612 -163 660 -8 25 -24 88 -35 140 -12 52 -29 124 -37&#xA;160 -17 76 -50 167 -106 300 -91 212 -137 277 -313 430 -79 70 -289 180 -410&#xA;214 -72 21 -118 27 -230 31 -77 2 -147 3 -155 1z"></path>
<path d="M11421 26580 c-89 -19 -238 -70 -275 -95 -20 -14 -54 -34 -74 -44&#xA;-44 -22 -221 -172 -235 -198 -5 -10 -20 -29 -33 -43 -28 -30 -117 -177 -149&#xA;-245 -13 -27 -30 -61 -38 -75 -40 -70 -90 -244 -251 -875 -41 -159 -83 -319&#xA;-95 -355 -11 -36 -21 -78 -21 -93 0 -25 2 -27 22 -16 12 7 29 21 38 31 13 17&#xA;37 22 138 31 106 9 133 8 195 -7 86 -20 231 -85 268 -121 15 -14 30 -25 32&#xA;-25 8 0 37 103 37 129 0 11 6 35 14 53 34 77 197 691 187 705 -3 5 -19 14 -35&#xA;21 -16 7 -26 15 -23 18 3 3 14 1 25 -5 12 -6 27 -11 35 -11 18 0 37 50 37 97&#xA;0 21 11 48 29 73 15 22 31 58 35 81 5 29 17 52 40 73 18 17 42 45 54 63 25 35&#xA;109 80 215 113 103 33 176 26 302 -30 147 -66 190 -115 273 -315 30 -73 32&#xA;-178 32 -1942 l0 -1563 53 -1 c28 -1 102 -1 162 -1 61 0 149 1 197 1 l88 1&#xA;-10 26 c-7 17 -10 552 -11 1523 0 823 0 1541 0 1596 0 55 0 159 1 230 2 210&#xA;-38 408 -118 575 -71 148 -158 275 -246 357 -106 99 -278 198 -416 239 -86 25&#xA;-111 28 -265 30 -93 2 -190 -1 -214 -6z"></path>
<path d="M21619 25713 c-1 -104 -1 -691 -1 -1306 l0 -1118 -21 3 c-12 2 -30&#xA;17 -40 33 -71 118 -125 194 -202 285 -101 121 -185 196 -229 206 -17 3 -42 17&#xA;-56 30 -14 12 -42 30 -62 38 -20 9 -43 24 -50 34 -9 13 -27 19 -58 20 -27 1&#xA;-56 10 -72 22 -15 11 -32 20 -39 20 -6 0 -45 11 -87 26 -43 14 -93 30 -112 36&#xA;-19 6 -69 12 -110 13 -41 0 -138 5 -215 9 -126 8 -158 6 -330 -19 -209 -30&#xA;-293 -56 -475 -143 -260 -126 -532 -379 -711 -662 -67 -105 -216 -422 -239&#xA;-509 -6 -24 -16 -51 -21 -60 -14 -25 -50 -141 -59 -191 -5 -25 -15 -74 -23&#xA;-110 -55 -242 -73 -484 -70 -930 3 -407 13 -505 73 -739 39 -155 126 -400 146&#xA;-417 8 -6 11 -14 8 -17 -3 -3 4 -10 15 -17 13 -6 21 -21 21 -37 0 -44 22 -106&#xA;52 -144 15 -20 28 -41 28 -47 0 -9 28 -55 123 -197 49 -73 193 -240 273 -316&#xA;53 -49 139 -118 198 -158 92 -63 160 -103 188 -113 18 -6 48 -22 66 -35 45&#xA;-34 290 -113 350 -113 26 0 60 -8 77 -17 26 -15 65 -18 263 -21 267 -4 394 12&#xA;577 73 159 52 215 80 215 106 0 19 4 21 36 16 38 -6 59 3 129 58 156 122 305&#xA;258 345 315 14 19 43 54 65 78 22 24 45 52 50 61 6 10 40 51 76 90 66 72 90&#xA;80 68 24 -17 -42 -12 -335 6 -398 8 -27 19 -68 25 -91 15 -61 145 -205 209&#xA;-233 106 -45 155 -52 371 -52 209 0 480 27 502 49 7 7 12 185 16 500 l5 489&#xA;-35 12 c-68 23 -170 152 -189 241 -6 28 -8 1071 -6 2778 l3 2732 -533 0 -533&#xA;0 -1 -187z m-970 -2674 c80 -11 130 -26 269 -78 52 -19 66 -27 153 -86 115&#xA;-77 291 -266 340 -364 7 -14 21 -37 30 -51 72 -111 155 -414 169 -615 19 -272&#xA;9 -637 -21 -780 -22 -108 -126 -383 -159 -420 -10 -11 -38 -51 -63 -90 -51&#xA;-79 -62 -92 -167 -189 -124 -114 -294 -202 -452 -233 -55 -10 -134 -16 -233&#xA;-16 -133 0 -160 4 -240 27 -128 38 -216 83 -325 165 -121 91 -206 174 -250&#xA;246 -19 31 -47 73 -62 92 -16 20 -28 42 -28 50 0 8 -18 46 -39 86 -21 40 -42&#xA;83 -46 97 -3 14 -15 43 -25 65 -24 53 -60 327 -67 514 -6 179 10 445 36 566&#xA;25 122 71 262 121 370 23 50 53 113 66 141 13 28 31 57 40 64 9 8 31 38 50 67&#xA;18 29 51 64 73 77 21 14 52 38 68 55 39 42 116 94 198 137 195 101 357 130&#xA;564 103z"></path>
<path d="M3600 22412 l0 -3272 529 0 c391 0 532 3 537 12 4 6 10 1475 13 3265&#xA;l6 3253 -376 0 c-207 0 -451 3 -542 7 l-167 6 0 -3271z"></path>
<path d="M23785 22412 l0 -3262 1988 -1 c1093 -1 1995 -2 2005 -3 16 -1 17 32&#xA;17 552 l0 552 -30 5 c-16 2 -667 6 -1445 7 -778 2 -1421 7 -1427 11 -10 6 -13&#xA;186 -13 842 l0 833 58 5 c31 2 496 2 1032 0 536 -3 1057 -2 1157 2 l182 7 1&#xA;529 0 529 -1209 0 c-1093 0 -1209 2 -1215 16 -3 9 -6 357 -6 775 l0 759 153 0&#xA;c847 1 2689 9 2690 12 1 1 1 248 -1 548 l-3 545 -1967 0 -1967 0 0 -3263z"></path>
<path d="M12985 25395 c-22 -8 -41 -15 -42 -15 -2 0 -3 -758 -3 -1685 l0&#xA;-1685 189 2 190 3 1 1435 c1 789 1 1514 1 1610 l-1 175 -50 62 c-78 96 -188&#xA;134 -285 98z"></path>
<path d="M5287 25390 c-43 -13 -135 -113 -144 -157 -4 -21 -8 -1563 -8 -3428&#xA;0 -3645 -2 -3455 50 -3507 13 -13 51 -38 85 -56 l62 -34 117 22 c64 12 183 35&#xA;266 51 476 95 797 112 1182 64 314 -39 385 -56 708 -168 104 -36 384 -174 520&#xA;-256 365 -221 721 -522 970 -821 28 -33 45 -45 69 -47 17 -1 53 -4 80 -6 47&#xA;-5 50 -3 100 47 29 28 86 89 127 136 284 324 702 633 1149 848 293 141 539&#xA;214 895 263 267 37 812 36 836 -2 6 -11 12 -11 31 0 24 12 61 10 108 -8 23 -9&#xA;88 -22 432 -86 195 -36 211 -36 286 9 49 29 67 47 87 86 l25 49 0 1245 0 1246&#xA;-22 5 c-13 3 -99 4 -193 3 l-170 -3 4 -1107 3 -1108 -20 0 c-12 0 -51 7 -87&#xA;15 -37 9 -153 30 -259 46 -175 28 -218 31 -516 36 -208 3 -366 1 -440 -6 -217&#xA;-21 -355 -40 -405 -54 -27 -9 -72 -18 -99 -22 -69 -9 -503 -153 -547 -181 -20&#xA;-13 -39 -20 -42 -17 -7 6 -334 -157 -467 -233 -123 -70 -216 -136 -258 -180&#xA;-44 -46 -53 -36 -16 18 203 301 687 675 1023 790 130 44 232 76 268 83 18 4&#xA;36 12 40 18 15 23 50 35 109 36 32 0 70 3 84 5 23 4 70 10 280 36 114 14 428&#xA;19 625 10 88 -4 234 -11 324 -15 l164 -8 -7 24 c-4 13 -7 428 -6 921 l2 897&#xA;-246 1 -246 1 0 -673 c0 -370 -4 -678 -8 -684 -11 -17 -90 -24 -307 -25 -330&#xA;-2 -552 -33 -875 -124 -153 -43 -431 -156 -470 -190 -14 -13 -52 -37 -85 -54&#xA;-80 -42 -243 -140 -286 -172 -19 -14 -61 -45 -94 -69 -65 -48 -331 -308 -386&#xA;-379 -19 -24 -46 -57 -60 -75 -142 -173 -320 -459 -358 -578 -7 -20 -19 -42&#xA;-27 -49 -22 -18 -77 40 -105 110 -52 132 -184 354 -301 509 -106 140 -299 330&#xA;-547 538 -20 17 -58 43 -86 59 -27 15 -70 42 -95 59 -50 34 -236 128 -345 175&#xA;-112 47 -409 139 -540 167 -195 41 -379 64 -565 69 -340 11 -381 13 -388 20&#xA;-4 3 -9 232 -10 508 -2 276 -8 507 -13 513 -5 6 -54 14 -110 17 -83 4 -109 10&#xA;-156 34 -70 35 -172 134 -201 193 l-21 45 5 -60 c3 -33 6 -77 7 -97 1 -21 5&#xA;-38 9 -38 4 0 7 -356 8 -792 0 -436 3 -795 7 -798 5 -4 94 0 198 8 260 18 817&#xA;21 965 4 158 -19 310 -48 405 -79 463 -149 864 -388 1091 -651 129 -148 174&#xA;-204 174 -213 0 -17 -22 -9 -60 21 -80 64 -273 177 -436 256 -155 75 -475 214&#xA;-492 214 -4 0 -63 17 -132 39 -138 44 -361 85 -575 106 -350 35 -1153 -8&#xA;-1300 -69 -20 -9 -53 -16 -71 -16 l-34 0 0 58 c1 31 -2 1540 -5 3352 -5 3053&#xA;-7 3296 -22 3308 -19 14 -171 15 -216 2z"></path>
<path d="M10430 24282 c-19 -10 -52 -25 -73 -31 -25 -9 -46 -26 -63 -50 -13&#xA;-21 -38 -47 -54 -60 -17 -12 -30 -28 -30 -37 0 -8 -16 -48 -35 -89 -35 -74&#xA;-40 -92 -121 -385 -97 -352 -123 -456 -164 -644 -11 -50 -42 -177 -69 -282&#xA;-53 -202 -96 -385 -141 -599 -15 -71 -51 -220 -80 -330 -29 -110 -56 -216 -60&#xA;-235 -29 -128 -62 -261 -75 -305 -17 -56 -57 -229 -75 -320 -6 -33 -16 -76&#xA;-21 -95 -5 -19 -25 -118 -45 -220 -39 -201 -55 -246 -82 -235 -9 4 -27 10 -39&#xA;12 -25 6 -29 16 -38 88 -4 28 -15 91 -25 140 -10 50 -23 113 -28 140 -36 183&#xA;-119 521 -167 675 -50 161 -148 519 -165 605 -16 78 -67 256 -91 320 -11 28&#xA;-43 96 -71 152 -50 101 -51 103 -102 122 -29 10 -71 29 -94 41 -59 31 -150 37&#xA;-241 16 -99 -23 -122 -36 -167 -98 -21 -29 -44 -57 -50 -63 -7 -5 -22 -44 -34&#xA;-85 -12 -41 -28 -82 -35 -90 -7 -8 -25 -62 -39 -120 -29 -112 -54 -200 -116&#xA;-400 -22 -69 -45 -150 -53 -180 l-13 -55 -199 -3 c-152 -2 -200 1 -207 10 -4&#xA;7 -8 176 -8 376 l0 362 -305 0 -305 0 0 -369 0 -369 -22 -6 c-13 -3 -145 -6&#xA;-295 -6 l-271 0 -6 -37 c-13 -89 -16 -150 -18 -358 -2 -207 -1 -222 20 -261&#xA;27 -52 32 -53 332 -48 124 1 232 -1 240 -6 13 -8 15 -68 18 -380 l3 -370 289&#xA;0 c158 0 296 3 304 6 15 6 16 45 16 366 -1 198 2 363 5 367 4 3 139 8 300 11&#xA;337 6 309 -3 384 114 30 45 48 92 71 181 18 66 43 151 56 189 13 38 24 88 24&#xA;110 0 23 12 66 26 96 28 61 59 204 70 323 8 90 14 97 101 100 l57 2 23 -130&#xA;c12 -71 52 -247 88 -390 36 -143 75 -302 85 -352 11 -51 25 -105 31 -120 13&#xA;-35 57 -198 75 -278 37 -169 56 -242 68 -265 8 -14 17 -45 21 -70 4 -25 11&#xA;-50 16 -56 5 -6 11 -32 13 -57 2 -25 6 -49 8 -53 3 -5 8 -22 12 -39 12 -52 89&#xA;-238 119 -288 30 -50 109 -120 184 -164 41 -24 51 -25 136 -21 138 7 162 21&#xA;294 160 46 49 62 91 128 343 20 77 45 169 55 205 10 36 32 128 50 205 18 77&#xA;45 187 60 245 30 111 47 175 78 305 11 44 32 123 46 175 31 110 101 389 111&#xA;440 4 19 15 64 25 100 10 36 26 101 35 145 10 44 28 114 41 155 12 41 22 94&#xA;22 118 0 27 5 47 14 55 9 7 19 26 22 42 5 22 4 26 -4 15 -8 -13 -10 -13 -10 1&#xA;0 8 4 19 10 25 5 5 21 50 34 99 42 149 56 198 66 235 6 19 19 78 30 130 10 52&#xA;26 127 35 165 9 39 25 120 36 180 26 150 58 285 73 315 8 16 19 24 32 22 10&#xA;-2 24 -4 31 -4 6 -1 16 -11 21 -22 32 -71 52 -137 52 -172 0 -22 9 -57 20 -79&#xA;11 -22 20 -52 20 -67 0 -15 5 -30 10 -33 6 -4 8 -11 4 -16 -3 -5 -1 -24 4 -42&#xA;6 -17 22 -86 37 -152 49 -217 88 -364 156 -583 11 -34 26 -90 33 -125 25 -110&#xA;132 -480 146 -507 5 -9 10 -45 13 -80 3 -52 12 -77 40 -125 77 -129 168 -227&#xA;242 -259 27 -13 57 -31 65 -40 20 -25 53 -36 130 -47 36 -4 448 -11 916 -15&#xA;l851 -7 6 59 c10 104 2 413 -12 427 -9 9 -211 13 -858 17 l-846 5 -28 53 c-15&#xA;30 -34 61 -42 70 -14 17 -33 70 -76 220 -51 176 -61 211 -81 282 -12 41 -26&#xA;98 -32 125 -5 28 -16 60 -24 72 -8 12 -14 33 -14 45 0 13 -13 64 -29 113 -36&#xA;113 -69 224 -86 295 -8 30 -26 93 -40 140 -40 131 -169 588 -210 745 -20 77&#xA;-45 156 -56 175 -67 120 -94 159 -115 164 -13 4 -38 21 -56 40 -32 34 -35 35&#xA;-138 41 -92 5 -109 4 -140 -13z m-200 -1697 c-5 -31 -9 -36 -15 -22 -4 10 -3&#xA;29 4 44 16 35 20 26 11 -22z m1060 -39 c0 -2 -9 -6 -20 -9 -11 -3 -18 -1 -14&#xA;4 5 9 34 13 34 5z"></path>
<path d="M35205 24060 c-88 -3 -165 -8 -170 -12 -6 -3 -62 -15 -126 -27 -201&#xA;-36 -405 -125 -570 -250 -177 -134 -348 -314 -455 -481 -22 -33 -45 -60 -51&#xA;-60 -15 0 -16 55 -13 458 l2 262 -24 0 c-12 0 -113 3 -223 5 -110 3 -328 7&#xA;-484 10 l-284 4 6 -3117 c4 -1714 7 -3208 7 -3319 l0 -203 528 0 c416 0 529 3&#xA;530 13 1 6 3 446 6 977 6 1400 7 1480 18 1486 15 10 45 -24 64 -74 20 -53 43&#xA;-80 229 -265 92 -92 155 -146 216 -183 48 -30 95 -57 105 -60 11 -4 44 -22 74&#xA;-40 30 -18 70 -36 88 -39 18 -3 52 -12 75 -21 80 -29 103 -35 222 -54 154 -26&#xA;486 -28 621 -5 170 30 275 63 420 135 283 141 506 317 696 550 81 100 102 146&#xA;74 162 -17 10 -22 48 -7 48 5 0 12 -9 16 -19 3 -11 13 -18 21 -17 17 3 63 55&#xA;64 72 0 6 20 42 45 80 25 37 45 74 45 80 0 7 16 42 35 78 19 37 35 77 35 91 0&#xA;14 4 25 8 25 13 0 43 97 48 152 3 32 13 56 28 73 14 15 28 48 34 78 5 29 17&#xA;88 26 132 60 291 59 275 65 573 7 335 -1 646 -19 752 -13 81 -52 281 -76 395&#xA;-13 59 -57 182 -109 300 -7 17 -25 56 -38 87 -14 31 -35 65 -46 75 -12 9 -24&#xA;33 -27 53 -8 45 -15 56 -62 114 -22 27 -43 62 -46 79 -3 16 -26 55 -51 86 -24&#xA;31 -61 78 -82 105 -79 101 -184 211 -228 238 -25 16 -48 35 -51 43 -3 8 -22&#xA;25 -42 37 -21 12 -59 40 -87 61 -52 42 -246 142 -352 183 -83 32 -240 70 -338&#xA;83 -119 15 -212 18 -390 11z m30 -1041 c101 -26 161 -51 257 -110 161 -99 339&#xA;-267 392 -371 15 -29 34 -64 42 -78 8 -14 26 -52 40 -85 14 -33 31 -73 39 -90&#xA;15 -35 90 -269 106 -335 15 -62 25 -695 11 -723 -15 -31 -32 -121 -32 -172 0&#xA;-32 -7 -51 -25 -73 -35 -41 -44 -72 -32 -105 8 -23 6 -32 -11 -50 -11 -12 -43&#xA;-67 -73 -122 -73 -138 -153 -247 -241 -331 -61 -58 -102 -85 -223 -148 -198&#xA;-102 -265 -120 -451 -118 -156 1 -238 17 -399 75 -221 81 -453 292 -564 516&#xA;-133 267 -208 691 -171 976 4 39 10 104 11 145 2 41 8 84 15 95 7 11 14 43 17&#xA;70 3 28 15 86 27 130 12 44 26 104 30 133 5 30 16 62 25 72 9 10 27 48 41 86&#xA;13 37 30 75 38 83 8 9 24 36 36 61 65 131 302 347 435 396 33 12 80 31 105 41&#xA;72 31 138 45 245 53 130 8 212 3 310 -21z m-1318 -1041 c-3 -7 -5 -2 -5 12 0&#xA;14 2 19 5 13 2 -7 2 -19 0 -25z"></path>
<path d="M15535 24049 c-16 -5 -73 -16 -125 -23 -102 -15 -278 -63 -357 -97&#xA;-26 -12 -72 -29 -101 -40 -29 -10 -67 -28 -84 -41 -18 -13 -74 -45 -124 -73&#xA;-120 -65 -258 -177 -421 -342 -181 -182 -262 -293 -364 -495 -11 -20 -35 -63&#xA;-54 -95 -19 -32 -35 -66 -35 -75 0 -10 -16 -47 -35 -84 -19 -36 -35 -73 -35&#xA;-81 0 -9 -9 -41 -19 -72 -35 -100 -72 -244 -87 -331 -59 -364 -78 -706 -54&#xA;-952 31 -307 48 -414 84 -518 8 -25 20 -71 27 -103 7 -32 16 -60 21 -63 4 -3&#xA;8 -16 8 -30 0 -43 131 -333 209 -464 101 -168 272 -375 409 -493 92 -80 235&#xA;-186 307 -229 74 -45 376 -195 430 -215 83 -31 202 -54 260 -51 45 1 67 -3 88&#xA;-16 25 -17 49 -18 355 -13 338 5 408 13 602 62 277 72 553 225 819 455 132&#xA;113 229 233 335 410 18 30 51 84 73 120 40 66 73 143 73 171 0 20 -93 63 -461&#xA;209 -83 33 -187 78 -232 99 -93 43 -127 53 -144 43 -6 -4 -21 -28 -32 -52 -24&#xA;-52 -26 -55 -109 -183 -35 -54 -72 -102 -82 -107 -9 -5 -65 -45 -124 -90 -59&#xA;-44 -127 -88 -149 -97 -23 -9 -55 -25 -72 -34 -47 -27 -154 -65 -241 -85 -59&#xA;-14 -118 -19 -229 -18 -188 0 -279 15 -372 59 -39 19 -75 35 -80 35 -4 0 -35&#xA;14 -68 32 -133 69 -286 207 -361 323 -46 73 -128 237 -161 324 -23 62 -93 370&#xA;-93 411 0 20 12 20 1583 20 l1583 0 14 53 c11 40 13 125 12 362 -3 417 -24&#xA;636 -83 846 -11 41 -24 90 -28 109 -9 39 -37 124 -51 155 -5 11 -23 54 -40 95&#xA;-17 41 -46 102 -65 135 -19 33 -52 96 -73 140 -22 44 -49 89 -61 99 -11 11&#xA;-21 24 -21 30 0 7 -9 23 -19 36 -207 263 -281 334 -516 501 -86 60 -303 178&#xA;-330 179 -11 0 -40 10 -65 21 -92 43 -295 100 -443 123 -109 18 -540 21 -592&#xA;5z m553 -937 c216 -66 301 -112 417 -227 156 -155 253 -326 305 -540 47 -188&#xA;71 -328 59 -340 -14 -14 -2104 -14 -2118 0 -19 19 23 224 84 409 86 262 284&#xA;502 521 630 156 85 260 106 479 102 133 -3 161 -7 253 -34z m1152 -3507 c0&#xA;-14 -4 -25 -10 -25 -5 0 -10 11 -10 25 0 14 5 25 10 25 6 0 10 -11 10 -25z"></path>
<path d="M32249 23976 c-3 -3 -261 -7 -574 -8 -484 -3 -570 -6 -577 -18 -5 -8&#xA;-43 -71 -86 -138 -42 -68 -86 -141 -97 -161 -11 -21 -30 -52 -43 -69 -12 -17&#xA;-29 -50 -38 -74 -8 -23 -23 -52 -33 -63 -26 -28 -53 -84 -48 -98 2 -7 -8 -17&#xA;-22 -23 -24 -10 -36 -28 -70 -104 -6 -14 -31 -56 -56 -95 -24 -38 -69 -113&#xA;-100 -165 -111 -190 -163 -273 -235 -380 -20 -30 -47 -74 -59 -97 -12 -24 -25&#xA;-43 -30 -43 -5 0 -44 66 -87 148 -90 172 -158 292 -279 492 -48 80 -151 255&#xA;-228 390 -135 236 -272 467 -286 482 -10 11 -1181 16 -1188 5 -3 -5 6 -21 20&#xA;-35 14 -15 60 -89 102 -166 42 -76 139 -238 217 -360 263 -411 297 -467 408&#xA;-661 31 -55 68 -119 81 -141 13 -23 53 -92 89 -153 36 -62 125 -205 199 -319&#xA;187 -290 279 -440 291 -478 11 -32 8 -38 -63 -146 -41 -62 -96 -151 -122 -198&#xA;-27 -47 -104 -173 -170 -280 -67 -107 -164 -265 -215 -350 -51 -85 -117 -191&#xA;-145 -235 -29 -44 -79 -124 -111 -177 -90 -149 -158 -258 -273 -443 -38 -60&#xA;-97 -157 -132 -215 -34 -58 -80 -134 -102 -169 -22 -35 -64 -112 -94 -170&#xA;l-55 -106 68 -2 c193 -7 1094 -7 1094 0 0 10 73 130 180 297 48 74 124 205&#xA;170 290 46 85 161 286 256 446 95 159 204 348 243 420 38 71 77 142 85 157 9&#xA;16 21 27 28 25 11 -4 53 -74 148 -253 59 -112 144 -257 287 -490 61 -99 138&#xA;-229 173 -290 35 -60 131 -221 213 -357 l151 -248 593 0 c475 0 593 3 593 13&#xA;0 7 -24 53 -54 103 -29 49 -64 110 -78 135 -39 69 -208 345 -270 439 -137 213&#xA;-233 369 -446 730 -31 52 -106 174 -167 270 -61 96 -129 204 -150 240 -21 36&#xA;-83 136 -137 223 -55 87 -122 201 -149 253 l-50 95 42 62 c71 103 394 620 512&#xA;817 126 213 223 373 321 533 38 62 87 143 109 182 22 38 92 148 156 245 64 96&#xA;118 179 120 185 2 5 21 36 43 67 21 31 38 59 38 62 0 3 17 34 38 68 46 75 64&#xA;108 59 108 -2 0 -6 -2 -8 -4z"></path>
</g>
</svg>