<?xml version="1.0" standalone="no"?>

<svg version="1.0" xmlns="http://www.w3.org/2000/svg" width="1024.000000pt" height="1024.000000pt" viewBox="0 0 1024.000000 1024.000000" preserveAspectRatio="xMidYMid meet">

<g transform="translate(0.000000,1024.000000) scale(0.100000,-0.100000)" fill="#000000" stroke="none">
<path d="M3252 7853 c-39 -8 -137 -70 -171 -109 -18 -20 -44 -61 -59 -92 l-27&#xA;-57 -3 -1523 c-3 -1681 -6 -1581 60 -1674 47 -65 67 -83 137 -119 60 -30 73&#xA;-33 188 -37 l124 -5 -3 74 -3 74 -105 6 c-66 4 -117 12 -136 22 -43 22 -91 80&#xA;-104 124 -8 27 -10 474 -8 1538 l3 1500 29 38 c15 20 47 51 69 67 l41 30 602&#xA;0 601 0 37 -30 c21 -16 66 -64 100 -107 141 -175 297 -374 371 -473 114 -152&#xA;174 -218 225 -248 l45 -27 830 -2 c457 -1 843 -5 859 -8 39 -7 109 -66 130&#xA;-109 18 -39 21 -140 5 -183 -6 -15 -15 -48 -20 -73 -5 -25 -16 -74 -24 -110&#xA;-8 -36 -35 -162 -60 -280 -25 -118 -48 -223 -51 -233 -7 -23 -49 -222 -75&#xA;-357 -12 -58 -25 -113 -30 -122 -5 -10 -9 -28 -9 -41 0 -13 -9 -63 -20 -113&#xA;-11 -49 -29 -132 -40 -184 -20 -92 -41 -183 -60 -265 -5 -22 -19 -83 -31 -136&#xA;-24 -113 -53 -156 -130 -194 l-48 -25 -578 0 -579 0 -17 -58 c-31 -104 -102&#xA;-93 611 -90 l627 3 50 28 c91 50 195 174 195 233 0 11 6 40 14 65 8 24 26 103&#xA;41 174 14 72 32 157 40 190 7 33 19 87 25 120 20 103 49 239 70 328 6 23 30&#xA;137 55 252 24 116 49 230 54 255 6 25 19 88 30 140 12 52 36 165 55 250 73&#xA;328 77 386 40 476 -42 101 -136 186 -221 200 -71 11 -77 21 -84 147 -9 157&#xA;-31 203 -151 314 -10 9 -41 25 -70 37 -52 20 -67 21 -913 23 -473 1 -868 2&#xA;-877 2 -10 1 -43 35 -75 79 -31 42 -88 114 -126 158 -57 69 -80 87 -136 113&#xA;l-68 31 -614 -1 c-338 -1 -625 -4 -637 -6z m3410 -552 c25 -16 58 -46 74 -66&#xA;27 -36 28 -43 29 -144 l0 -106 -725 -3 c-399 -1 -735 0 -746 3 -21 5 -99 94&#xA;-161 185 -17 25 -47 63 -67 85 -36 40 -42 55 -29 68 3 4 360 7 793 7 l786 0&#xA;46 -29z"></path>
<path d="M3992 7298 c-8 -8 -12 -47 -12 -110 l0 -98 -98 0 c-63 0 -102 -4&#xA;-110 -12 -7 -7 -12 -44 -12 -94 0 -110 5 -114 121 -114 l89 0 0 -98 c0 -63 4&#xA;-102 12 -110 13 -13 175 -17 195 -4 8 5 13 43 15 107 l3 100 97 5 c53 3 101&#xA;10 107 15 5 6 11 47 12 92 4 113 1 116 -121 112 l-95 -4 -3 100 c-2 79 -6 103&#xA;-19 113 -22 16 -165 16 -181 0z"></path>
<path d="M5916 6584 c-19 -18 -20 -28 -6 -55 10 -18 25 -19 409 -19 485 0 445&#xA;15 412 -153 -12 -61 -26 -125 -31 -142 -4 -16 -15 -64 -24 -105 -22 -104 -65&#xA;-296 -78 -349 -6 -24 -12 -71 -12 -105 l-1 -61 31 -3 c38 -4 48 15 69 136 8&#xA;49 20 102 25 118 5 16 24 97 40 179 17 83 42 193 55 245 12 52 26 127 30 167&#xA;l7 72 -47 45 -47 46 -408 0 c-358 0 -411 -2 -424 -16z"></path>
<path d="M3640 6402 l0 -67 76 -13 c90 -14 124 -35 155 -99 l24 -48 3 -498 3&#xA;-497 185 2 185 3 -1 463 c0 393 2 472 16 524 16 65 47 118 67 118 7 0 26 8 42&#xA;17 17 9 53 19 80 22 l50 6 0 65 0 65 -442 3 -443 2 0 -68z"></path>
<path d="M4664 5762 c-12 -9 -24 -26 -27 -37 -14 -53 -51 -175 -67 -220 -10&#xA;-27 -28 -88 -40 -135 -29 -109 -75 -267 -89 -302 l-10 -28 -266 -2 -265 -3 -3&#xA;-245 c-5 -339 -17 -364 -192 -402 l-60 -13 -3 -68 -3 -67 446 0 445 0 0 59 c0&#xA;85 -4 91 -58 91 -47 0 -152 43 -152 62 0 5 -6 15 -13 23 -23 22 -38 152 -35&#xA;290 l3 130 121 3 c143 3 146 5 176 109 20 70 25 86 76 258 17 58 35 101 43&#xA;103 10 2 22 -33 42 -125 16 -71 35 -155 43 -188 7 -33 19 -82 25 -110 6 -27&#xA;22 -99 36 -160 13 -60 28 -130 33 -155 5 -25 16 -76 25 -115 9 -38 20 -88 24&#xA;-110 32 -156 38 -165 104 -165 47 0 55 16 133 300 38 138 108 377 141 485 12&#xA;37 24 60 33 60 8 0 32 -31 52 -70 63 -121 25 -110 371 -113 299 -3 302 -3 319&#xA;19 22 26 23 82 2 103 -13 14 -52 16 -276 16 -237 0 -262 2 -274 18 -8 9 -48&#xA;86 -89 169 -44 90 -84 157 -96 164 -45 24 -91 -12 -109 -83 -5 -18 -22 -80&#xA;-40 -138 -64 -217 -95 -328 -124 -438 -28 -105 -38 -116 -60 -62 -9 22 -16 52&#xA;-16 67 0 15 -13 79 -30 142 -16 64 -44 181 -61 261 -44 201 -45 206 -64 290&#xA;-9 41 -25 118 -36 170 -11 52 -22 105 -24 118 -13 55 -70 78 -111 44z"></path>
<path d="M5258 3416 c-2 -90 -6 -167 -10 -171 -4 -4 -22 4 -40 18 -41 31 -127&#xA;57 -189 57 -27 0 -79 -12 -121 -27 -87 -32 -142 -83 -181 -166 -23 -48 -27&#xA;-69 -27 -152 0 -52 6 -113 13 -136 26 -85 129 -184 217 -209 89 -25 204 -6&#xA;282 45 49 32 56 31 60 -7 3 -32 4 -33 61 -38 32 -3 63 -3 68 0 6 4 8 190 7&#xA;476 l-3 469 -67 3 -67 3 -3 -165z m-118 -248 c29 -15 56 -40 78 -72 29 -44 32&#xA;-55 32 -129 0 -69 -4 -85 -27 -122 -27 -44 -88 -88 -137 -99 -15 -4 -53 -1&#xA;-83 5 -72 17 -146 83 -163 149 -24 91 10 197 82 252 40 30 56 35 123 37 35 1&#xA;65 -6 95 -21z"></path>
<path d="M2298 3523 c-3 -5 -4 -206 -4 -448 l1 -440 78 -3 77 -3 0 451 0 450&#xA;-74 0 c-41 0 -76 -3 -78 -7z"></path>
<path d="M2700 3080 l0 -451 73 3 72 3 0 288 c0 243 2 287 14 285 13 -3 57&#xA;-67 115 -169 12 -20 38 -65 60 -100 21 -35 47 -78 57 -96 44 -78 73 -114 86&#xA;-108 8 3 25 5 38 5 20 0 34 17 81 98 31 53 64 108 73 122 10 14 28 45 42 70&#xA;13 25 27 47 30 50 3 3 18 28 34 55 32 57 54 85 66 85 5 0 10 -132 11 -292 l3&#xA;-293 70 0 70 0 3 448 2 447 -64 0 c-62 0 -66 -2 -89 -32 -14 -18 -33 -49 -44&#xA;-68 -10 -19 -32 -55 -48 -80 -16 -25 -40 -65 -54 -90 -13 -25 -36 -63 -51 -85&#xA;-14 -22 -41 -67 -60 -100 -50 -91 -74 -125 -88 -125 -11 0 -90 114 -133 191&#xA;-19 35 -45 77 -108 178 -30 47 -70 114 -90 148 l-36 63 -67 0 -68 0 0 -450z"></path>
<path d="M5640 3081 c0 -248 3 -451 8 -453 4 -2 157 -2 340 0 l333 3 -3 62 -3&#xA;62 -260 5 -260 5 0 124 0 125 30 8 c17 5 116 8 220 7 l190 -2 3 62 3 61 -223&#xA;2 -223 3 -3 114 c-2 72 1 118 8 125 7 7 88 10 250 8 132 -2 240 0 241 5 0 4 1&#xA;33 2 63 l1 55 -327 3 -327 2 0 -449z"></path>
<path d="M4103 3296 c-162 -59 -245 -198 -222 -375 4 -39 15 -85 22 -103 18&#xA;-42 90 -123 125 -141 15 -7 36 -18 47 -24 64 -34 229 -44 303 -18 62 22 114&#xA;50 135 72 16 19 16 21 -13 61 -17 23 -36 42 -44 42 -7 0 -43 -16 -80 -35 -55&#xA;-28 -79 -35 -126 -35 -32 0 -62 5 -65 10 -3 6 -16 10 -28 10 -27 0 -137 113&#xA;-137 141 0 18 12 19 278 21 l277 3 -2 55 c-4 93 -32 167 -86 226 -96 106 -243&#xA;141 -384 90z m213 -115 c21 -11 49 -30 61 -43 26 -28 52 -88 46 -105 -6 -16&#xA;-388 -19 -398 -3 -8 13 28 80 62 112 64 61 152 76 229 39z"></path>
<path d="M7520 3309 c-14 -6 -36 -16 -50 -22 -14 -7 -39 -22 -56 -34 -35 -26&#xA;-44 -22 -44 19 l0 28 -70 0 -69 0 -6 -32 c-3 -18 -4 -224 -3 -458 l3 -425 73&#xA;-3 72 -3 0 161 c0 102 4 160 10 160 6 0 28 -11 50 -25 123 -78 267 -73 393 14&#xA;91 62 146 226 118 352 -30 133 -69 187 -170 237 -64 31 -86 37 -150 39 -42 2&#xA;-87 -2 -101 -8z m134 -128 c45 -11 90 -51 117 -103 14 -27 19 -58 19 -117 0&#xA;-74 -2 -82 -33 -123 -18 -23 -48 -53 -67 -66 -31 -21 -45 -23 -111 -20 -65 3&#xA;-81 7 -113 31 -20 16 -49 47 -63 69 -23 34 -27 51 -27 112 -1 165 114 254 278&#xA;217z"></path>
<path d="M6420 3296 c0 -10 63 -98 133 -186 7 -9 31 -41 55 -73 l43 -58 -19&#xA;-32 c-10 -18 -64 -93 -120 -166 -56 -73 -102 -137 -102 -142 0 -5 33 -9 73 -9&#xA;81 0 89 5 145 87 48 72 104 143 111 143 8 0 85 -95 145 -177 l38 -53 84 0 c65&#xA;0 83 3 78 13 -4 6 -53 73 -109 147 -56 74 -110 149 -119 166 l-18 31 108 142&#xA;c60 79 115 151 122 161 12 16 7 17 -54 19 -36 1 -74 -1 -85 -4 -16 -5 -71 -72&#xA;-148 -181 -13 -19 -27 -34 -32 -34 -4 0 -36 37 -70 83 -106 141 -102 138 -186&#xA;136 -48 -1 -73 -6 -73 -13z"></path>
</g>
</svg>